<?xml version="1.0" encoding="UTF-8" standalone="no"?>
<!DOCTYPE svg PUBLIC "-//W3C//DTD SVG 1.1//EN"
 "http://www.w3.org/Graphics/SVG/1.1/DTD/svg11.dtd">
<!-- Generated by graphviz version 14.1.1 (0)
 -->
<!-- Title: mattTorch::function::GradBroadcast::backward Pages: 1 -->
<svg width="448pt" height="190pt"
 viewBox="0.00 0.00 448.00 190.00" xmlns="http://www.w3.org/2000/svg" xmlns:xlink="http://www.w3.org/1999/xlink">
<g id="graph0" class="graph" transform="scale(1 1) rotate(0) translate(4 186)">
<title>mattTorch::function::GradBroadcast::backward</title>
<!-- Node1 -->
<g id="Node000001" class="node">
<title>Node1</title>
<g id="a_Node000001"><a xlink:title="Computes and propagates gradients for the broadcasting operation.">
<polygon fill="#999999" stroke="#666666" points="135.25,-57 0,-57 0,-25 135.25,-25 135.25,-57"/>
<text xml:space="preserve" text-anchor="start" x="8" y="-43.5" font-family="Helvetica,sans-Serif" font-size="10.00">mattTorch::function</text>
<text xml:space="preserve" text-anchor="middle" x="67.62" y="-31.5" font-family="Helvetica,sans-Serif" font-size="10.00">::GradBroadcast::backward</text>
</a>
</g>
</g>
<!-- Node2 -->
<g id="Node000002" class="node">
<title>Node2</title>
<g id="a_Node000002"><a xlink:href="classmattTorch_1_1TensorView.html#a0b3a056b5751ad4dd7f7c4af0e628f24" target="_top" xlink:title="Reduction sum of a Tensor along a specified dimension.">
<polygon fill="white" stroke="#666666" points="287.75,-82 171.25,-82 171.25,-50 287.75,-50 287.75,-82"/>
<text xml:space="preserve" text-anchor="start" x="179.25" y="-68.5" font-family="Helvetica,sans-Serif" font-size="10.00">mattTorch::TensorView</text>
<text xml:space="preserve" text-anchor="middle" x="229.5" y="-56.5" font-family="Helvetica,sans-Serif" font-size="10.00">::reductionSum</text>
</a>
</g>
</g>
<!-- Node1&#45;&gt;Node2 -->
<g id="edge1_Node000001_Node000002" class="edge">
<title>Node1&#45;&gt;Node2</title>
<g id="a_edge1_Node000001_Node000002"><a xlink:title=" ">
<path fill="none" stroke="#63b8ff" d="M135.5,-51.46C143.47,-52.7 151.61,-53.98 159.61,-55.23"/>
<polygon fill="#63b8ff" stroke="#63b8ff" points="158.86,-58.65 169.28,-56.74 159.94,-51.74 158.86,-58.65"/>
</a>
</g>
</g>
<!-- Node5 -->
<g id="Node000005" class="node">
<title>Node5</title>
<g id="a_Node000005"><a xlink:href="classmattTorch_1_1TensorView.html#a9054b67c6d0df3b951db8bbb5a66a950" target="_top" xlink:title="Sets whether this tensor requires gradient computation.">
<polygon fill="white" stroke="#666666" points="440.25,-32 323.75,-32 323.75,0 440.25,0 440.25,-32"/>
<text xml:space="preserve" text-anchor="start" x="331.75" y="-18.5" font-family="Helvetica,sans-Serif" font-size="10.00">mattTorch::TensorView</text>
<text xml:space="preserve" text-anchor="middle" x="382" y="-6.5" font-family="Helvetica,sans-Serif" font-size="10.00">::setRequiresGrad</text>
</a>
</g>
</g>
<!-- Node1&#45;&gt;Node5 -->
<g id="edge6_Node000001_Node000005" class="edge">
<title>Node1&#45;&gt;Node5</title>
<g id="a_edge6_Node000001_Node000005"><a xlink:title=" ">
<path fill="none" stroke="#63b8ff" d="M135.64,-35.64C187.66,-31.47 259.54,-25.72 312.05,-21.52"/>
<polygon fill="#63b8ff" stroke="#63b8ff" points="312.08,-25.03 321.77,-20.74 311.52,-18.05 312.08,-25.03"/>
</a>
</g>
</g>
<!-- Node3 -->
<g id="Node000003" class="node">
<title>Node3</title>
<g id="a_Node000003"><a xlink:href="classmattTorch_1_1TensorView.html#a86a90cc1d974b9595e0f6c77f6a6263b" target="_top" xlink:title="Returns a raw pointer to the underlying contiguous data storage.">
<polygon fill="white" stroke="#666666" points="440.25,-182 323.75,-182 323.75,-150 440.25,-150 440.25,-182"/>
<text xml:space="preserve" text-anchor="start" x="331.75" y="-168.5" font-family="Helvetica,sans-Serif" font-size="10.00">mattTorch::TensorView</text>
<text xml:space="preserve" text-anchor="middle" x="382" y="-156.5" font-family="Helvetica,sans-Serif" font-size="10.00">::getData</text>
</a>
</g>
</g>
<!-- Node2&#45;&gt;Node3 -->
<g id="edge2_Node000002_Node000003" class="edge">
<title>Node2&#45;&gt;Node3</title>
<g id="a_edge2_Node000002_Node000003"><a xlink:title=" ">
<path fill="none" stroke="#63b8ff" d="M248.01,-82.47C266,-98.79 295.32,-123.78 323.75,-141 325.63,-142.14 327.57,-143.25 329.55,-144.34"/>
<polygon fill="#63b8ff" stroke="#63b8ff" points="327.83,-147.39 338.33,-148.84 331.03,-141.16 327.83,-147.39"/>
</a>
</g>
</g>
<!-- Node4 -->
<g id="Node000004" class="node">
<title>Node4</title>
<g id="a_Node000004"><a xlink:href="classmattTorch_1_1TensorView.html#a254bbcb6575618123825a826fded2022" target="_top" xlink:title="Sets the pointer to the GradFunction object for this tensor.">
<polygon fill="white" stroke="#666666" points="440.25,-132 323.75,-132 323.75,-100 440.25,-100 440.25,-132"/>
<text xml:space="preserve" text-anchor="start" x="331.75" y="-118.5" font-family="Helvetica,sans-Serif" font-size="10.00">mattTorch::TensorView</text>
<text xml:space="preserve" text-anchor="middle" x="382" y="-106.5" font-family="Helvetica,sans-Serif" font-size="10.00">::setGradFunction</text>
</a>
</g>
</g>
<!-- Node2&#45;&gt;Node4 -->
<g id="edge3_Node000002_Node000004" class="edge">
<title>Node2&#45;&gt;Node4</title>
<g id="a_edge3_Node000002_Node000004"><a xlink:title=" ">
<path fill="none" stroke="#63b8ff" d="M279.78,-82.37C292.83,-86.71 307.08,-91.44 320.65,-95.95"/>
<polygon fill="#63b8ff" stroke="#63b8ff" points="319.32,-99.2 329.92,-99.03 321.53,-92.55 319.32,-99.2"/>
</a>
</g>
</g>
<!-- Node2&#45;&gt;Node5 -->
<g id="edge4_Node000002_Node000005" class="edge">
<title>Node2&#45;&gt;Node5</title>
<g id="a_edge4_Node000002_Node000005"><a xlink:title=" ">
<path fill="none" stroke="#63b8ff" d="M279.78,-49.63C292.83,-45.29 307.08,-40.56 320.65,-36.05"/>
<polygon fill="#63b8ff" stroke="#63b8ff" points="321.53,-39.45 329.92,-32.97 319.32,-32.8 321.53,-39.45"/>
</a>
</g>
</g>
<!-- Node6 -->
<g id="Node000006" class="node">
<title>Node6</title>
<g id="a_Node000006"><a xlink:href="classmattTorch_1_1TensorView.html#ae335ce0265d9a831f17cba989017d6ab" target="_top" xlink:title="Default constructor creating an empty TensorView.">
<polygon fill="white" stroke="#666666" points="440.25,-82 323.75,-82 323.75,-50 440.25,-50 440.25,-82"/>
<text xml:space="preserve" text-anchor="start" x="331.75" y="-68.5" font-family="Helvetica,sans-Serif" font-size="10.00">mattTorch::TensorView</text>
<text xml:space="preserve" text-anchor="middle" x="382" y="-56.5" font-family="Helvetica,sans-Serif" font-size="10.00">::TensorView</text>
</a>
</g>
</g>
<!-- Node2&#45;&gt;Node6 -->
<g id="edge5_Node000002_Node000006" class="edge">
<title>Node2&#45;&gt;Node6</title>
<g id="a_edge5_Node000002_Node000006"><a xlink:title=" ">
<path fill="none" stroke="#63b8ff" d="M287.83,-66C295.73,-66 303.92,-66 312,-66"/>
<polygon fill="#63b8ff" stroke="#63b8ff" points="311.82,-69.5 321.82,-66 311.82,-62.5 311.82,-69.5"/>
</a>
</g>
</g>
</g>
</svg>
