<?xml version="1.0" encoding="UTF-8" standalone="no"?>
<!DOCTYPE svg PUBLIC "-//W3C//DTD SVG 1.1//EN"
 "http://www.w3.org/Graphics/SVG/1.1/DTD/svg11.dtd">
<!-- Generated by graphviz version 14.1.1 (0)
 -->
<!-- Title: include/mattTorch Pages: 1 -->
<!--zoomable 96 -->

<svg id="main" version="1.1" xmlns="http://www.w3.org/2000/svg" xmlns:xlink="http://www.w3.org/1999/xlink" xml:space="preserve" onload="init(evt)">

<style type="text/css"><![CDATA[
.node, .edge {opacity: 0.7;}
.node.selected, .edge.selected {opacity: 1;}
.edge:hover path { stroke: red; }
.edge:hover polygon { stroke: red; fill: red; }
]]></style>

<defs>
  <circle id="rim" cx="0" cy="0" r="7"/>
  <circle id="rim2" cx="0" cy="0" r="3.5"/>
  <g id="zoomPlus">
    <use xlink:href="#rim" fill="#404040"><set attributeName="fill" to="#808080" begin="zoomplus.mouseover" end="zoomplus.mouseout"/></use>
    <path d="M-4,0h8M0,-4v8" fill="none" stroke="white" stroke-width="1.5" pointer-events="none"/>
  </g>
  <g id="zoomMin">
    <use xlink:href="#rim" fill="#404040"><set attributeName="fill" to="#808080" begin="zoomminus.mouseover" end="zoomminus.mouseout"/></use>
    <path d="M-4,0h8" fill="none" stroke="white" stroke-width="1.5" pointer-events="none"/>
  </g>
  <g id="arrowUp" transform="translate(30 24)">
    <use xlink:href="#rim"/>
    <path pointer-events="none" fill="none" stroke="white" stroke-width="1.5" d="M0,-3.0v7 M-2.5,-0.5L0,-3.0L2.5,-0.5"/>
  </g>
  <g id="arrowRight" transform="rotate(90) translate(36 -43)">
    <use xlink:href="#rim"/>
    <path pointer-events="none" fill="none" stroke="white" stroke-width="1.5" d="M0,-3.0v7 M-2.5,-0.5L0,-3.0L2.5,-0.5"/>
  </g>
  <g id="arrowDown" transform="rotate(180) translate(-30 -48)">
    <use xlink:href="#rim"/>
    <path pointer-events="none" fill="none" stroke="white" stroke-width="1.5" d="M0,-3.0v7 M-2.5,-0.5L0,-3.0L2.5,-0.5"/>
  </g>
  <g id="arrowLeft" transform="rotate(270) translate(-36 17)">
    <use xlink:href="#rim"/>
    <path pointer-events="none" fill="none" stroke="white" stroke-width="1.5" d="M0,-3.0v7 M-2.5,-0.5L0,-3.0L2.5,-0.5"/>
  </g>
  <g id="resetDef">
    <use xlink:href="#rim2" fill="#404040"><set attributeName="fill" to="#808080" begin="reset.mouseover" end="reset.mouseout"/></use>
  </g>
</defs>
<script type="application/ecmascript">
var viewWidth = 577;
var viewHeight = 96;
var sectionId = 'dynsection-0';
</script>
<script type="application/ecmascript" xlink:href="svg.min.js"/>
<svg id="graph" class="graph">
<g id="viewport">
<title>include/mattTorch</title>
<g id="clust1" class="cluster">
<title>clusterdir_d44c64559bbebec7f509842c48db8b23</title>
<g id="a_clust1"><a xlink:href="dir_d44c64559bbebec7f509842c48db8b23.html" target="_top" xlink:title="include">
<polygon fill="#edf0f7" stroke="#404040" stroke-dasharray="5,2" points="8,-8 8,-80 561,-80 561,-8 8,-8"/>
<text xml:space="preserve" text-anchor="middle" x="284.5" y="-66.5" font-family="Helvetica,sans-Serif" font-size="10.00">include</text>
</a>
</g>
</g>
<g id="clust2" class="cluster">
<title>clusterdir_3af1453fd1039c21cab18e7ea82e7cbe</title>
<g id="a_clust2"><a xlink:href="dir_3af1453fd1039c21cab18e7ea82e7cbe.html" target="_top">
<polygon fill="#edf0f7" stroke="#404040" stroke-width="2" points="16,-16 16,-52 553,-52 553,-16 16,-16"/>
</a>
</g>
</g>
<!-- dir_3af1453fd1039c21cab18e7ea82e7cbe -->
<g id="node1" class="node">
<title>dir_3af1453fd1039c21cab18e7ea82e7cbe</title>
<text xml:space="preserve" text-anchor="middle" x="54" y="-30.5" font-family="Helvetica,sans-Serif" font-size="10.00">mattTorch</text>
</g>
<!-- dir_bf493a54074ed621dae0ffb9b8c6c487 -->
<g id="node2" class="node">
<title>dir_bf493a54074ed621dae0ffb9b8c6c487</title>
<g id="a_node2"><a xlink:href="dir_bf493a54074ed621dae0ffb9b8c6c487.html" target="_top" xlink:title="criterion">
<polygon fill="#a2b4d6" stroke="#404040" points="152.25,-44 101.75,-44 101.75,-24 152.25,-24 152.25,-44"/>
<text xml:space="preserve" text-anchor="middle" x="127" y="-30.5" font-family="Helvetica,sans-Serif" font-size="10.00">criterion</text>
</a>
</g>
</g>
<!-- dir_e94cd05580a9b3fc47fda258f1b7a096 -->
<g id="node3" class="node">
<title>dir_e94cd05580a9b3fc47fda258f1b7a096</title>
<g id="a_node3"><a xlink:href="dir_e94cd05580a9b3fc47fda258f1b7a096.html" target="_top" xlink:title="dataset">
<polygon fill="#a2b4d6" stroke="#404040" points="218.12,-44 169.88,-44 169.88,-24 218.12,-24 218.12,-44"/>
<text xml:space="preserve" text-anchor="middle" x="194" y="-30.5" font-family="Helvetica,sans-Serif" font-size="10.00">dataset</text>
</a>
</g>
</g>
<!-- dir_8175d424fa4dcf5b0fc619f4095a980e -->
<g id="node4" class="node">
<title>dir_8175d424fa4dcf5b0fc619f4095a980e</title>
<g id="a_node4"><a xlink:href="dir_8175d424fa4dcf5b0fc619f4095a980e.html" target="_top" xlink:title="function">
<polygon fill="#a2b4d6" stroke="#404040" points="286.25,-44 235.75,-44 235.75,-24 286.25,-24 286.25,-44"/>
<text xml:space="preserve" text-anchor="middle" x="261" y="-30.5" font-family="Helvetica,sans-Serif" font-size="10.00">function</text>
</a>
</g>
</g>
<!-- dir_a824274abcb360783144f004657f20cc -->
<g id="node5" class="node">
<title>dir_a824274abcb360783144f004657f20cc</title>
<g id="a_node5"><a xlink:href="dir_a824274abcb360783144f004657f20cc.html" target="_top" xlink:title="layer">
<polygon fill="#a2b4d6" stroke="#404040" points="341.5,-44 304.5,-44 304.5,-24 341.5,-24 341.5,-44"/>
<text xml:space="preserve" text-anchor="middle" x="323" y="-30.5" font-family="Helvetica,sans-Serif" font-size="10.00">layer</text>
</a>
</g>
</g>
<!-- dir_22eabb453f82ee8b3f171c2cf0a67658 -->
<g id="node6" class="node">
<title>dir_22eabb453f82ee8b3f171c2cf0a67658</title>
<g id="a_node6"><a xlink:href="dir_22eabb453f82ee8b3f171c2cf0a67658.html" target="_top" xlink:title="network">
<polygon fill="#a2b4d6" stroke="#404040" points="410.25,-44 359.75,-44 359.75,-24 410.25,-24 410.25,-44"/>
<text xml:space="preserve" text-anchor="middle" x="385" y="-30.5" font-family="Helvetica,sans-Serif" font-size="10.00">network</text>
</a>
</g>
</g>
<!-- dir_c5eb971221830fe1e337f978df53a877 -->
<g id="node7" class="node">
<title>dir_c5eb971221830fe1e337f978df53a877</title>
<g id="a_node7"><a xlink:href="dir_c5eb971221830fe1e337f978df53a877.html" target="_top" xlink:title="optimiser">
<polygon fill="#a2b4d6" stroke="#404040" points="483.88,-44 428.12,-44 428.12,-24 483.88,-24 483.88,-44"/>
<text xml:space="preserve" text-anchor="middle" x="456" y="-30.5" font-family="Helvetica,sans-Serif" font-size="10.00">optimiser</text>
</a>
</g>
</g>
<!-- dir_6aed610996411b55110b5037e36bdddd -->
<g id="node8" class="node">
<title>dir_6aed610996411b55110b5037e36bdddd</title>
<g id="a_node8"><a xlink:href="dir_6aed610996411b55110b5037e36bdddd.html" target="_top" xlink:title="tensor">
<polygon fill="#a2b4d6" stroke="#404040" points="544.5,-44 501.5,-44 501.5,-24 544.5,-24 544.5,-44"/>
<text xml:space="preserve" text-anchor="middle" x="523" y="-30.5" font-family="Helvetica,sans-Serif" font-size="10.00">tensor</text>
</a>
</g>
</g>
</g>
</svg>

<g id="navigator" transform="translate(0 0)" fill="#404254">
  <rect fill="#f2f5e9" fill-opacity="0.5" stroke="#606060" stroke-width=".5" x="0" y="0" width="60" height="60"/>
  <use id="zoomplus" xlink:href="#zoomPlus" x="17" y="9" onmousedown="handleZoom(evt,'in')"/>
  <use id="zoomminus" xlink:href="#zoomMin" x="42" y="9" onmousedown="handleZoom(evt,'out')"/>
  <use id="reset" xlink:href="#resetDef" x="30" y="36" onmousedown="handleReset()"/>
   <use id="arrowup" xlink:href="#arrowUp" x="0" y="0" onmousedown="handlePan(0,-1)"/>
  <use id="arrowright" xlink:href="#arrowRight" x="0" y="0" onmousedown="handlePan(1,0)"/>
  <use id="arrowdown" xlink:href="#arrowDown" x="0" y="0" onmousedown="handlePan(0,1)"/>
  <use id="arrowleft" xlink:href="#arrowLeft" x="0" y="0" onmousedown="handlePan(-1,0)"/>
</g>
<svg viewBox="0 0 15 15" width="100%" height="30px" preserveAspectRatio="xMaxYMin meet">
 <g id="arrow_out" transform="scale(0.3 0.3)">
  <a xlink:href="dir_3af1453fd1039c21cab18e7ea82e7cbe_dep_org.svg" target="_base">
   <rect id="button" ry="5" rx="5" y="6" x="6" height="38" width="38"
        fill="#f2f5e9" fill-opacity="0.5" stroke="#606060" stroke-width="1.0"/>
   <path id="arrow"
     d="M 11.500037,31.436501 C 11.940474,20.09759 22.043105,11.32322 32.158766,21.979434 L 37.068811,17.246167 C 37.068811,17.246167 37.088388,32 37.088388,32 L 22.160133,31.978069 C 22.160133,31.978069 26.997745,27.140456 26.997745,27.140456 C 18.528582,18.264221 13.291696,25.230495 11.500037,31.436501 z"
     style="fill:#404040;"/>
  </a>
 </g>
</svg>

<style type='text/css'>
<![CDATA[
[data-mouse-over-selected='false'] { opacity: 0.7; }
[data-mouse-over-selected='true']  { opacity: 1.0; }
]]>
</style>
<script type="application/ecmascript"><![CDATA[
document.addEventListener('DOMContentLoaded', (event) => {
  highlightEdges();
  highlightAdjacentNodes();
});
]]></script>
</svg>
